<?xml version="1.0" encoding="utf-8"?>
<!-- Generator: Adobe Illustrator 19.2.1, SVG Export Plug-In . SVG Version: 6.00 Build 0)  -->
<!DOCTYPE svg PUBLIC "-//W3C//DTD SVG 1.1//EN" "http://www.w3.org/Graphics/SVG/1.1/DTD/svg11.dtd">
<svg version="1.1" id="Layer_1" xmlns="http://www.w3.org/2000/svg" xmlns:xlink="http://www.w3.org/1999/xlink" x="0px" y="0px"
	 viewBox="0 0 68.9 58.1" style="enable-background:new 0 0 68.9 58.1;" xml:space="preserve">
<style type="text/css">
	.st0{fill:#FFFFFF;}
</style>
<g>
	<path class="st0" d="M47.4,29.7h2.9c3.6,0,5,1.9,5,5.6c0,3.6-1.2,5.6-4.4,5.6h-3.5V29.7z M47.4,15h3.2c2.7,0,3.9,2.1,3.9,5.4
		c0,3-1.8,4.9-4,4.9h-3.1V15z M51.8,46.2c6.9,0,9.5-4.3,9.5-10.2c0-4.6-1.8-7-4.9-8.4c2.9-1.2,4.2-4.5,4.2-7.6
		c0-6.1-2.9-9.6-9.4-9.6h-9.6v35.8H51.8z"/>
	<path class="st0" d="M66.7,52l-32.2,3.8V2.3l32.2,3.8V52z M18.1,46.5c-5.5,0-8.7-4.8-8.8-10.1h3.5c0.1,3.1,2,6.9,5.7,6.9
		c3.1,0,5.2-2,5.2-5.8c0-8.1-14-9-14-19.2c0-5,3.4-8.4,8.4-8.4c5,0,8.3,2.9,8.6,9.6h-3.5c-0.3-4.5-1.7-6.3-5.4-6.3
		c-2.9,0-4.8,2-4.8,4.7c0,8,14,8.1,14,19.6C27,43.1,23.8,46.5,18.1,46.5 M68.9,4.1L34.4,0v0l0,0l0,0v0L0,4.1V54l34.4,4.1v0l0,0l0,0
		v0L68.9,54V4.1z"/>
</g>
</svg>
